<?xml version="1.0" encoding="iso-8859-1"?>
<!-- Generator: Adobe Illustrator 17.1.0, SVG Export Plug-In . SVG Version: 6.00 Build 0)  -->
<!DOCTYPE svg PUBLIC "-//W3C//DTD SVG 1.1//EN" "http://www.w3.org/Graphics/SVG/1.1/DTD/svg11.dtd">
<svg version="1.1" id="Capa_1" xmlns="http://www.w3.org/2000/svg" xmlns:xlink="http://www.w3.org/1999/xlink" x="0px" y="0px"
	 viewBox="0 0 196.398 196.398" style="enable-background:new 0 0 196.398 196.398;" xml:space="preserve">
<path d="M144.795,174.236v12.765c0,5.182-4.216,9.397-9.397,9.397H30.375c-5.182,0-9.398-4.216-9.398-9.397V41.56
	c0-5.182,4.216-9.397,9.398-9.397h11.229v122.677c0,10.695,8.702,19.397,19.397,19.397H144.795z M175.422,9.397v145.441
	c0,5.182-4.216,9.397-9.398,9.397H61.001c-5.182,0-9.397-4.216-9.397-9.397V9.397C51.604,4.216,55.819,0,61.001,0h105.023
	C171.206,0,175.422,4.216,175.422,9.397z M155.65,62.874c-1.852-2.049-5.014-2.206-7.062-0.355l-45.438,41.088L81.611,78.939
	c-1.816-2.082-4.976-2.294-7.055-0.479c-2.08,1.816-2.294,4.975-0.478,7.055l24.885,28.5c0.882,1.011,2.133,1.624,3.472,1.703
	c0.099,0.006,0.197,0.009,0.294,0.009c1.236,0,2.432-0.458,3.354-1.291l49.211-44.5C157.343,68.084,157.502,64.922,155.65,62.874z"
	/>
<g>
</g>
<g>
</g>
<g>
</g>
<g>
</g>
<g>
</g>
<g>
</g>
<g>
</g>
<g>
</g>
<g>
</g>
<g>
</g>
<g>
</g>
<g>
</g>
<g>
</g>
<g>
</g>
<g>
</g>
</svg>
