<svg id="Layer_1" data-name="Layer 1" xmlns="http://www.w3.org/2000/svg" xmlns:xlink="http://www.w3.org/1999/xlink" viewBox="0 0 512 512"><defs><style>.cls-1{fill:url(#linear-gradient);}.cls-2{fill:url(#linear-gradient-2);}.cls-3{fill:url(#linear-gradient-3);}.cls-4{fill:url(#linear-gradient-4);}.cls-5{fill:url(#linear-gradient-5);}.cls-6{fill:url(#linear-gradient-6);}</style><linearGradient id="linear-gradient" x1="578.969" y1="423.388" x2="82.684" y2="158.531" gradientUnits="userSpaceOnUse"><stop offset="0.19" stop-color="#fd9b02" id="id_179"></stop><stop offset="1" stop-color="#6f751e" id="id_180"></stop></linearGradient><linearGradient id="linear-gradient-2" x1="220.764" y1="256.082" x2="650.193" y2="76.082" gradientUnits="userSpaceOnUse"><stop offset="0" stop-color="#c47144" id="id_181"></stop><stop offset="1" stop-color="#f2ff3d" id="id_182"></stop></linearGradient><linearGradient id="linear-gradient-3" x1="245.333" y1="22.571" x2="245.333" y2="373.687" gradientUnits="userSpaceOnUse"><stop offset="0" stop-color="#c2cf0b" id="id_183"></stop><stop offset="1" stop-color="#f59815" id="id_184"></stop></linearGradient><linearGradient id="linear-gradient-4" x1="245.901" y1="19.357" x2="245.901" y2="457.147" xlink:href="#linear-gradient-2"></linearGradient><linearGradient id="linear-gradient-5" x1="303.405" y1="292.738" x2="442.61" y2="431.943" gradientUnits="userSpaceOnUse"><stop offset="0" stop-color="#34ca82" id="id_185"></stop><stop offset="1" stop-color="#cad620" id="id_186"></stop></linearGradient><linearGradient id="linear-gradient-6" x1="328.817" y1="301.132" x2="429.103" y2="414.918" gradientUnits="userSpaceOnUse"><stop offset="0" stop-color="#fff" id="id_187"></stop><stop offset="1" stop-color="#edf2f0" id="id_188"></stop></linearGradient></defs><title>Ready Stock</title><path class="cls-1" d="M441.667,118.253l-192-85.334a10.687,10.687,0,0,0-8.667,0L49,118.253A10.668,10.668,0,0,0,42.667,128V362.667A10.668,10.668,0,0,0,49,372.414l192,85.333a10.666,10.666,0,0,0,8.667,0l192-85.333A10.668,10.668,0,0,0,448,362.667V128A10.668,10.668,0,0,0,441.667,118.253Z" id="id_173"></path><path class="cls-2" d="M249.667,457.747l192-85.333A10.668,10.668,0,0,0,448,362.667V128a10.668,10.668,0,0,0-6.333-9.747l-192-85.334A10.691,10.691,0,0,0,245.333,32V458.667A10.7,10.7,0,0,0,249.667,457.747Z" id="id_174"></path><path class="cls-3" d="M245.333,213.333l201.65-89.622a10.568,10.568,0,0,0-5.316-5.458l-192-85.334a10.687,10.687,0,0,0-8.667,0L49,118.253a10.568,10.568,0,0,0-5.316,5.458Z" id="id_175"></path><polygon class="cls-4" points="156.467 173.837 361.6 82.667 335.335 70.994 130.202 162.164 156.467 173.837" id="id_176"></polygon><circle class="cls-5" cx="373.333" cy="362.667" r="96" id="id_177"></circle><path class="cls-6" d="M362.667,405.333a10.63,10.63,0,0,1-7.542-3.125l-26.667-26.666a10.666,10.666,0,0,1,15.084-15.084l19.125,19.123,45.791-45.789a10.666,10.666,0,1,1,15.084,15.083l-53.334,53.333A10.628,10.628,0,0,1,362.667,405.333Z" id="id_178"></path></svg>